<?xml version="1.0" encoding="UTF-8" standalone="no"?>
<!-- Created with Inkscape (http://www.inkscape.org/) -->

<svg
   width="102.15518mm"
   height="107.43237mm"
   viewBox="0 0 102.15518 107.43237"
   version="1.1"
   id="svg159"
   xml:space="preserve"
   inkscape:version="1.2.2 (b0a8486541, 2022-12-01)"
   sodipodi:docname="rest_icon.svg"
   inkscape:export-filename="rest_icon.png"
   inkscape:export-xdpi="30.26"
   inkscape:export-ydpi="30.26"
   xmlns:inkscape="http://www.inkscape.org/namespaces/inkscape"
   xmlns:sodipodi="http://sodipodi.sourceforge.net/DTD/sodipodi-0.dtd"
   xmlns="http://www.w3.org/2000/svg"
   xmlns:svg="http://www.w3.org/2000/svg"><sodipodi:namedview
     id="namedview161"
     pagecolor="#ffffff"
     bordercolor="#000000"
     borderopacity="0.25"
     inkscape:showpageshadow="2"
     inkscape:pageopacity="0.0"
     inkscape:pagecheckerboard="0"
     inkscape:deskcolor="#d1d1d1"
     inkscape:document-units="mm"
     showgrid="false"
     showguides="true"
     inkscape:zoom="0.84096521"
     inkscape:cx="326.41065"
     inkscape:cy="491.69692"
     inkscape:window-width="1890"
     inkscape:window-height="1128"
     inkscape:window-x="1455"
     inkscape:window-y="35"
     inkscape:window-maximized="1"
     inkscape:current-layer="layer1" /><defs
     id="defs156" /><g
     inkscape:label="Layer 1"
     inkscape:groupmode="layer"
     id="layer1"
     transform="translate(-0.122884,-0.01488656)"><g
       id="g669"
       transform="translate(-74.266899,-55.868765)"><path
         style="fill:#000000;stroke-width:1"
         d="m 109.6252,163.31602 c -36.439995,-115.501701 -18.219998,-57.75085 0,0 z m 8.16103,-3.956 c -1.29124,-0.54332 -1.60246,-1.38369 -2.0172,-5.44688 -0.5108,-5.00431 -0.48934,-4.92258 -1.34214,-5.11093 -1.84609,-0.40771 -3.63495,-1.09399 -6.86114,-2.63224 l -3.49174,-1.66486 -0.98387,0.83536 c -0.54113,0.45945 -1.64875,1.44348 -2.46139,2.18673 -2.461621,2.25144 -3.683821,3.01426 -4.829512,3.01426 -0.958572,0 -1.238038,-0.21443 -4.396647,-3.37344 -1.855155,-1.85539 -4.296907,-4.23737 -5.426117,-5.29328 -1.12921,-1.05591 -2.17252,-2.23392 -2.318469,-2.6178 -0.509929,-1.34121 0.34418,-2.94136 3.911081,-7.32731 0.928293,-1.14145 1.65127,-2.15348 1.606616,-2.24896 -0.04465,-0.0955 -0.570778,-1.18562 -1.169165,-2.42255 -1.029552,-2.12819 -2.542307,-6.20511 -2.854407,-7.69272 -0.133101,-0.63443 -0.366254,-0.73168 -3.390664,-1.41431 -5.018704,-1.13276 -6.030013,-1.4564 -6.726147,-2.15253 l -0.645536,-0.64554 0.0776,-7.69554 0.0776,-7.695541 0.831499,-0.7426 c 0.623921,-0.55721 1.317452,-0.8263 2.778124,-1.07793 1.070645,-0.18444 3.001656,-0.52506 4.291134,-0.75693 l 2.344505,-0.42159 0.642109,-2.24873 c 0.708494,-2.48123 2.491536,-6.531055 3.46701,-7.874635 l 0.626851,-0.8634 -0.850929,-0.71601 c -1.157489,-0.97396 -3.566686,-4.27463 -4.353256,-5.96408 -1.181147,-2.53695 -0.935953,-3.08607 2.965776,-6.64191 1.577176,-1.43737 3.919071,-3.72932 5.204213,-5.09323 2.226694,-2.36319 2.388735,-2.47985 3.444433,-2.47985 1.225016,0 1.708343,0.33897 5.868028,4.11543 l 2.23032,2.02483 2.5853,-1.32372 c 1.42191,-0.72804 3.94824,-1.75362 5.61406,-2.27906 1.66581,-0.52545 3.1225,-1.10298 3.23709,-1.2834 0.11459,-0.18042 0.21534,-1.75679 0.22391,-3.50304 0.0193,-3.92485 0.26933,-5.29185 1.12452,-6.14704 l 0.66285,-0.66286 7.32952,-0.10105 c 8.05717,-0.11109 8.30164,-0.0712 9.23357,1.50643 0.45485,0.77 0.93754,4.62065 0.94982,7.57714 l 0.007,1.64344 1.12448,0.30187 c 1.44421,0.3877 5.95507,2.10114 8.34583,3.17013 l 1.85688,0.83027 0.75255,-0.6584 c 5.35806,-4.68776 6.72371,-5.619 7.81999,-5.3325 0.33302,0.087 3.13699,2.62053 6.23104,5.62999 5.6054,5.45214 5.62555,5.47582 5.6224,6.60677 -0.003,1.25702 -0.68954,2.81583 -1.59647,3.62748 -0.3252,0.29104 -1.1235,1.3343 -1.77399,2.31834 -0.65049,0.98405 -1.41657,1.95299 -1.70241,2.1532 -0.50606,0.35446 -0.49204,0.41519 0.53363,2.31186 1.25289,2.31684 3.09966,6.844265 3.35158,8.216515 0.15218,0.82896 0.30563,1.00221 1.01266,1.1433 3.44841,0.68814 7.85339,1.86334 8.54123,2.2787 1.38039,0.833581 1.15519,5.993571 1.36664,9.030741 0.16303,2.34169 -0.0787,7.04164 -0.0787,7.04164 l -0.76696,0.80007 c -0.55544,0.57942 -1.17569,0.87912 -2.24896,1.08666 -0.8151,0.15762 -2.83262,0.60635 -4.48338,0.99719 l -3.0014,0.71062 -0.74625,1.64582 c -0.41044,0.9052 -0.93636,2.33646 -1.16872,3.18058 -0.23235,0.84412 -0.92382,2.50255 -1.53659,3.6854 l -1.11414,2.15063 0.72452,0.89208 c 1.03132,1.26981 3.73154,5.23391 4.24827,6.23674 0.8688,1.68607 0.46772,3.26397 -1.09744,4.31746 -0.53654,0.36114 -2.94684,2.58523 -5.35623,4.94242 -2.40938,2.35719 -4.7023,4.40807 -5.09537,4.55751 -0.45994,0.17487 -0.94821,0.18291 -1.36996,0.0226 -0.58518,-0.22249 -5.92842,-4.87955 -6.63898,-5.78641 -0.23496,-0.29987 -0.47058,-0.26519 -1.39188,0.20482 -1.66094,0.84735 -7.43479,3.11907 -8.80335,3.46368 l -1.19906,0.30193 -0.45941,4.00942 c -0.47354,4.13284 -1.03052,6.00699 -1.92765,6.48631 -0.74316,0.39706 -14.28203,0.5187 -15.19039,0.13648 z m 14.04104,-17.79162 c 6.19768,-1.38022 11.75881,-4.2093 16.46068,-8.37394 1.30099,-1.15234 4.83325,-5.09208 5.67818,-6.33321 1.82744,-2.68434 3.49673,-6.55201 4.50301,-10.43325 0.52081,-2.00879 0.68495,-3.43253 0.79512,-6.89696 0.16837,-5.29481 -0.41325,-9.3488 -1.92555,-13.421231 -4.26057,-11.473085 -15.34641,-20.595015 -27.12151,-22.316765 -3.46383,-0.50648 -9.79804,-0.18204 -13.0743,0.66966 -5.90072,1.53395 -10.00928,3.68126 -14.33228,7.49063 -5.30098,4.67115 -9.738905,12.124675 -10.782546,18.109346 -1.291788,7.40767 -1.038698,13.39454 0.80853,19.12566 2.681192,8.31855 11.076976,17.23772 19.341146,20.54685 2.48596,0.99543 6.58037,2.02573 9.29017,2.33774 2.83125,0.32599 7.6933,0.0892 10.35935,-0.50452 z"
         id="path450"
         sodipodi:nodetypes="cccssscsssssssssssscccssscsscsssssscssssscssccsscscscsssssssacssscssscssssscssscssccsssssssssssssss" /><path
         d="m 116.41327,127.78548 c -2.48445,-0.81464 -4.54774,-3.38452 -4.5596,-5.6791 l -0.005,-0.97029 h -0.98594 c -3.25601,0 -5.69533,-2.16329 -6.02338,-5.34177 -0.0941,-0.91225 -0.0125,-1.45309 0.33941,-2.24869 l 0.46339,-1.04756 -0.98177,-1.02464 c -1.38485,-1.44531 -2.02793,-3.2356 -1.86916,-5.20362 0.20488,-2.53941 0.9249,-3.78339 2.83919,-4.90524 0.71032,-0.41628 0.96096,-0.69128 0.86292,-0.94678 -0.076,-0.19805 -0.25557,-1.044606 -0.39903,-1.881232 -0.3308,-1.929098 0.0521,-3.964131 0.98931,-5.257905 0.78191,-1.079407 1.47924,-1.463433 3.31211,-1.824032 l 1.39503,-0.274458 0.1089,-1.517044 c 0.25892,-3.606777 2.82146,-5.848609 6.684,-5.847479 2.56774,6.91e-4 3.95546,0.782783 5.05106,2.846447 0.40107,0.755446 0.42798,1.761611 0.49305,18.432133 0.0463,11.87581 -0.01,17.92546 -0.17232,18.52859 -0.37581,1.39565 -1.59726,3.03383 -2.72446,3.65399 -1.08112,0.5948 -3.70887,0.87226 -4.8177,0.50868 z m 3.11083,-5.40326 c 0.36307,-0.55411 0.35324,-0.63396 -0.21784,-1.76936 l -0.59808,-1.18905 0.32503,-1.99002 c 0.34703,-2.12479 0.52173,-7.70617 0.25472,-8.13819 -0.45867,-0.74215 -2.41153,0.23056 -6.48383,3.22955 -0.81199,0.59798 -1.80922,1.12363 -2.28304,1.20341 -1.59504,0.26855 -1.64036,0.30235 -1.64036,1.2233 0,1.24995 0.58974,1.70731 2.0238,1.56952 1.23292,-0.11847 2.40914,-0.65994 4.45621,-2.05139 1.25114,-0.85044 1.33434,-0.87625 1.21447,-0.37679 -0.0708,0.29491 -0.25771,1.73551 -0.41541,3.20133 -0.26597,2.47222 -0.25588,2.73351 0.13941,3.61011 0.84559,1.87519 2.47519,2.62183 3.22492,1.47758 z m -7.14015,-12.5371 c 0.20988,-0.54694 -0.7967,-2.19361 -1.77712,-2.90722 -1.10227,-0.8023 -1.85217,-1.01071 -2.29986,-0.63915 -0.46997,0.39004 -0.41179,1.60493 0.10664,2.22647 1.02949,1.23428 3.66676,2.111 3.97034,1.3199 z m 3.60079,-6.76599 c 0.45411,-0.22763 1.14471,-0.68236 1.53466,-1.01049 0.52551,-0.44219 0.80769,-0.54137 1.09028,-0.38322 0.48216,0.26983 1.25837,0.0933 1.62918,-0.37046 0.44818,-0.56058 0.33535,-1.644815 -0.25155,-2.417026 -0.94886,-1.248472 -1.2619,-2.083744 -1.50372,-4.012324 -0.2374,-1.893227 -0.12412,-3.291642 0.22134,-2.732657 0.12038,0.194761 0.28924,0.06247 0.54058,-0.423581 0.49501,-0.957249 0.45949,-1.689967 -0.1175,-2.423487 -0.68713,-0.873558 -1.71692,-0.746947 -2.4182,0.297306 -0.69674,1.037489 -0.95673,2.049185 -1.12817,4.390025 -0.12583,1.718191 -0.0752,2.159858 0.40164,3.504361 l 0.54563,1.538401 -0.87457,0.759389 c -1.51347,1.314153 -3.16697,1.275823 -4.32487,-0.100258 -1.02651,-1.219945 -1.73208,-0.748397 -1.81752,1.214681 -0.0664,1.5266 0.84371,2.38941 2.79332,2.64802 1.39709,0.18531 2.69059,0.017 3.67947,-0.47868 z m 14.63943,24.61517 c -1.22367,-0.46651 -2.2619,-1.44946 -2.89262,-2.73861 l -0.59451,-1.21513 0.0611,-18.368 0.0611,-18.368021 0.68491,-0.970192 c 1.01256,-1.434311 2.50178,-2.111916 4.64151,-2.111916 2.30419,0 3.38079,0.365164 4.56601,1.548695 1.21077,1.209047 1.8754,2.651676 2.0356,4.418413 0.10761,1.186768 0.17792,1.338644 0.61976,1.338644 1.13521,0 2.6443,0.740173 3.50677,1.719977 1.18119,1.341905 1.51484,2.498549 1.52033,5.27033 l 0.004,2.31007 1.17277,1.1145 c 1.61614,1.53584 2.18847,2.75372 2.31869,4.93396 0.093,1.55783 0.0363,1.90577 -0.48341,2.96796 -0.32384,0.66179 -0.94337,1.56254 -1.37672,2.00168 -0.64561,0.65424 -0.74577,0.87717 -0.55458,1.23442 0.41561,0.77657 0.31645,4.25829 -0.14692,5.15874 -1.03019,2.00195 -2.70082,3.05613 -4.86808,3.0718 -0.96177,0.007 -1.42691,0.10074 -1.42691,0.28772 0,1.5391 -2.45567,5.27222 -3.98327,6.05539 -1.11975,0.57407 -3.76648,0.75876 -4.86607,0.33957 z m 3.81233,-5.22562 c 0.99216,-1.06495 1.15169,-2.35198 0.81604,-6.5836 l -0.19013,-2.3972 0.94168,0.84815 c 1.20411,1.08449 2.9661,1.9767 4.25175,2.15292 0.87834,0.12039 1.08343,0.0625 1.59671,-0.4508 1.02744,-1.02743 0.60837,-1.90974 -1.09552,-2.30649 -0.85819,-0.19983 -2.73182,-1.43446 -4.02317,-2.65108 -1.03433,-0.97447 -2.51804,-1.80203 -3.24748,-1.81132 -0.54976,-0.007 -1.03821,1.05253 -1.36573,2.96251 -0.27073,1.57879 -0.11069,3.23836 0.64014,6.6383 0.0941,0.42625 -0.0323,0.7804 -0.45991,1.28863 -0.72128,0.85719 -0.75448,1.71932 -0.0901,2.33832 0.65193,0.60737 1.64521,0.59472 2.22568,-0.0283 z m 7.82382,-13.28246 c 1.08715,-0.79133 1.29787,-2.58777 0.34637,-2.9529 -0.46535,-0.17857 -1.14884,0.71552 -1.12725,1.47459 0.01,0.35372 -0.0776,0.64311 -0.19475,0.64311 -0.11717,0 -0.21304,0.36565 -0.21304,0.81255 0,0.86802 0.0266,0.86852 1.18867,0.0227 z m -2.76815,-5.77785 c 1.02905,-0.41174 2.26439,-1.87873 2.26439,-2.689 0,-0.53939 -0.59197,-1.50053 -0.92418,-1.50053 -0.11736,0 -0.68446,0.359581 -1.26022,0.79906 -0.75856,0.57903 -1.27778,0.79884 -1.88549,0.79823 -0.88138,-8.7e-4 -2.25146,-0.68956 -2.46166,-1.237329 -0.068,-0.177288 0.10154,-1.125045 0.37684,-2.106127 0.40309,-1.436555 0.47149,-2.104228 0.35136,-3.429885 -0.19495,-2.151437 -0.68871,-3.768058 -1.41417,-4.630217 -0.66284,-0.787744 -1.12673,-0.861512 -1.83087,-0.291137 -0.79895,0.64718 -1.05915,1.338738 -0.72823,1.935517 0.15666,0.282525 0.26301,0.590739 0.23633,0.684914 -0.0267,0.09417 0.0928,0.171231 0.26541,0.171231 0.17266,0 0.37814,0.321053 0.45662,0.713449 0.40868,2.043395 -0.0682,4.030435 -1.41219,5.884557 -0.85469,1.179105 -0.94686,2.213337 -0.26266,2.947737 0.49219,0.5283 1.23501,0.65979 1.48078,0.26211 0.0868,-0.14046 0.52201,0.10143 1.06491,0.5919 0.50495,0.45619 1.24115,0.97001 1.63602,1.14183 0.98593,0.42899 2.91427,0.40693 4.04701,-0.0463 z"
         style="fill:#ff8080;stroke-width:0.999996"
         id="path651" /><path
         d="M 105.80657,137.70993 C 96.72015,132.37512 89.731003,121.01107 88.673383,109.85211 87.426969,96.701113 94.56448,83.017761 106.31544,76.030473 c 6.46349,-3.843289 15.57821,-5.935946 22.49221,-5.16401 10.38686,1.159651 20.14279,7.028276 26.41879,15.892052 2.00809,2.836075 4.36665,7.965278 5.23093,11.375848 0.98903,3.902827 1.22703,10.757697 0.5161,14.864727 -0.67236,3.88423 -2.27208,8.73029 -3.53962,10.7226 -4.95327,7.78563 -8.16062,11.09331 -14.01043,14.44873 -12.5954,6.18413 -25.98345,6.21945 -37.61685,-0.46049 z m 27.27853,0.0381 c 3.37156,-0.88235 8.15695,-3.01004 10.99555,-4.8889 9.24782,-6.12104 14.93413,-19.5265 12.99812,-30.64292 -0.63397,-3.640197 -2.5205,-8.790677 -4.41122,-12.043216 -1.65049,-2.839274 -6.13015,-7.364068 -9.63151,-9.728558 -2.79564,-1.887899 -7.6761,-4.113401 -10.86891,-4.956223 -3.32523,-0.87779 -10.2775,-0.821596 -14.31851,0.115783 -9.06672,2.103074 -16.81878,7.89456 -21.35649,15.955256 -1.43731,2.553211 -3.232284,8.013181 -3.64671,11.092548 -0.973689,7.23509 0.97072,15.15497 5.32739,21.69918 4.9237,7.39599 11.39178,11.73639 20.42218,13.70431 3.82615,0.8338 10.68588,0.68836 14.49011,-0.30721 z m -9.18306,-2.91169 c -0.87617,-0.87619 -0.94457,-1.12019 -0.94457,-3.36958 0,-2.23488 0.0668,-2.47751 0.85145,-3.09475 1.11813,-0.87953 1.91042,-0.84557 2.87942,0.12344 0.69037,0.69037 0.79317,1.08503 0.79317,3.04509 0,1.9512 -0.11175,2.38468 -0.83658,3.24614 -1.04108,1.23726 -1.54614,1.24639 -2.74289,0.0497 z m -15.45879,-4.73704 c -1.18645,-0.99834 -1.22474,-1.41876 -0.28204,-3.09608 0.97482,-1.73444 2.61394,-2.73909 3.67797,-2.25428 2.26911,1.03388 1.23072,4.10011 -2.02256,5.97239 -0.20712,0.1192 -0.82514,-0.16072 -1.37337,-0.62203 z m 30.7391,0.32836 c -0.88215,-0.61789 -2.00645,-2.74352 -2.00645,-3.79345 0,-0.97646 0.9395,-1.84026 2.00153,-1.84026 1.48965,0 3.49196,2.18935 3.49196,3.81812 0,0.92113 -1.23787,2.32166 -2.052,2.32166 -0.39189,0 -1.03765,-0.22774 -1.43504,-0.50607 z m -39.46796,-9.39348 c -0.36836,-0.46828 -0.66975,-1.1372 -0.66975,-1.48647 0,-0.8301 1.91736,-2.7336 3.03642,-3.01447 1.99912,-0.50174 3.3171,2.51751 1.72998,3.96309 -1.76078,1.60377 -3.11804,1.78196 -4.09665,0.53785 z m 47.53444,-0.11505 c -1.8704,-1.3549 -2.07807,-2.42191 -0.70943,-3.64481 0.85663,-0.76539 1.2493,-0.90858 2.05162,-0.7481 2.85102,0.57019 3.73977,2.78563 1.92288,4.79328 -0.74319,0.82119 -1.74901,0.69786 -3.26507,-0.40037 z M 123.37709,110.9117 c -1.87523,-1.14338 -2.62283,-3.9541 -1.55063,-5.82971 0.36,-0.62976 0.46434,-2.34494 0.47326,-7.779987 0.011,-6.862977 0.0232,-6.983095 0.75935,-7.674716 1.00095,-0.940346 2.61516,-0.923553 3.5759,0.03725 0.67886,0.678845 0.75743,1.124879 0.95358,5.412696 0.11749,2.5701 0.21428,5.799877 0.21493,7.177297 l 0.001,2.50438 h 8.09334 8.09336 l 0.79317,0.79317 c 1.04951,1.04951 1.06999,2.71187 0.0453,3.67454 -0.72551,0.68159 -0.98288,0.70262 -8.59751,0.70262 h -7.84942 l -0.96009,0.80787 c -1.16697,0.98194 -2.61871,1.04461 -4.0455,0.17465 z m -27.35225,-1.89662 c -0.29415,-0.32502 -0.53481,-1.12146 -0.53481,-1.76985 0,-1.51293 1.06162,-2.26982 3.22865,-2.30188 1.93092,-0.0286 2.91114,0.73431 2.91114,2.26573 0,1.53654 -1.21564,2.39696 -3.38654,2.39696 -1.22069,0 -1.8307,-0.1625 -2.21844,-0.59096 z m 54.05205,-0.35362 c -1.76981,-1.76982 -0.85964,-3.90261 1.66545,-3.90261 1.03226,0 1.52679,0.20933 2.28455,0.96709 1.11459,1.11461 1.04576,1.97222 -0.25309,3.15301 -1.13181,1.02896 -2.53289,0.94652 -3.69691,-0.21749 z M 100.40124,95.816493 c -2.05002,-1.01031 -2.32342,-3.011962 -0.56847,-4.161842 1.04868,-0.687126 2.0899,-0.435371 3.56842,0.862791 1.32262,1.161271 1.46513,2.216101 0.42971,3.180721 -0.84855,0.79055 -1.98601,0.82979 -3.42966,0.11835 z m 45.71127,-0.0504 c -1.20478,-1.33128 -0.0589,-3.456751 2.30865,-4.28206 1.2043,-0.419823 1.74163,-0.125835 2.51957,1.378563 0.58671,1.134577 0.25153,1.874607 -1.27696,2.819267 -1.34718,0.83261 -2.8419,0.86806 -3.55125,0.0843 z m -36.45567,-7.458962 c -0.43179,-0.339642 -1.05432,-1.117514 -1.38341,-1.728599 -0.76228,-1.415444 -0.48211,-2.651734 0.7447,-3.286135 0.81842,-0.423218 1.0307,-0.415243 1.99202,0.07487 1.39688,0.712224 2.36064,2.050838 2.36064,3.278806 0,2.020817 -2.07612,2.949341 -3.71395,1.661023 z m 27.84221,-0.351892 c -0.79282,-0.792821 -0.79498,-1.09542 -0.02,-2.802337 1.10758,-2.439396 3.34307,-3.084117 4.6406,-1.338357 0.56776,0.763899 0.59597,0.986879 0.23512,1.858061 -1.03553,2.499958 -3.48632,3.652049 -4.85574,2.282633 z M 123.83791,84.15768 c -1.37969,-1.524538 -1.57394,-3.940129 -0.41041,-5.103651 0.96933,-0.969341 2.07309,-1.01188 3.20256,-0.123429 1.7944,1.411467 0.74872,5.793172 -1.38249,5.793172 -0.49354,0 -1.1279,-0.254735 -1.40966,-0.566092 z"
         style="fill:#000080;stroke-width:1"
         id="path618" /></g></g></svg>
